<?xml version="1.0" encoding="UTF-8"?>
<!DOCTYPE svg PUBLIC "-//W3C//DTD SVG 1.1//EN" "http://www.w3.org/Graphics/SVG/1.1/DTD/svg11.dtd">
<svg xmlns="http://www.w3.org/2000/svg" version="1.1" width="2667px" height="2000px" style="shape-rendering:geometricPrecision; text-rendering:geometricPrecision; image-rendering:optimizeQuality; fill-rule:evenodd; clip-rule:evenodd" xmlns:xlink="http://www.w3.org/1999/xlink">
<g><path style="opacity:1" fill="#fefefe" d="M 0.5,-0.5 C 104.833,-0.5 209.167,-0.5 313.5,-0.5C 542.95,170.399 772.617,341.065 1002.5,511.5C 1002.56,512.043 1002.89,512.376 1003.5,512.5C 1004.5,341.501 1004.83,170.501 1004.5,-0.5C 1048.5,-0.5 1092.5,-0.5 1136.5,-0.5C 1136.5,267.5 1136.5,535.5 1136.5,803.5C 757.5,803.5 378.5,803.5 -0.5,803.5C -0.5,757.833 -0.5,712.167 -0.5,666.5C 178.168,666.833 356.835,666.5 535.5,665.5C 535.376,664.893 535.043,664.56 534.5,664.5C 356.167,531.833 177.833,399.167 -0.5,266.5C -0.5,236.167 -0.5,205.833 -0.5,175.5C 218.554,338.374 437.22,501.874 655.5,666C 738.5,666.667 821.5,666.667 904.5,666C 602.984,443.97 301.651,221.803 0.5,-0.5 Z"/></g>
<g><path style="opacity:1" fill="#012169" d="M 313.5,-0.5 C 543.5,-0.5 773.5,-0.5 1003.5,-0.5C 1003.83,170.334 1003.5,341.001 1002.5,511.5C 772.617,341.065 542.95,170.399 313.5,-0.5 Z"/></g>
<g><path style="opacity:1" fill="#c0c8da" d="M 1003.5,-0.5 C 1003.83,-0.5 1004.17,-0.5 1004.5,-0.5C 1004.83,170.501 1004.5,341.501 1003.5,512.5C 1002.89,512.376 1002.56,512.043 1002.5,511.5C 1003.5,341.001 1003.83,170.334 1003.5,-0.5 Z"/></g>
<g><path style="opacity:1" fill="#c8102e" d="M 1136.5,-0.5 C 1270.17,-0.5 1403.83,-0.5 1537.5,-0.5C 1537.5,267.5 1537.5,535.5 1537.5,803.5C 1913.83,803.5 2290.17,803.5 2666.5,803.5C 2666.5,936.833 2666.5,1070.17 2666.5,1203.5C 2290.17,1203.5 1913.83,1203.5 1537.5,1203.5C 1537.5,1468.83 1537.5,1734.17 1537.5,1999.5C 1403.83,1999.5 1270.17,1999.5 1136.5,1999.5C 1136.5,1734.17 1136.5,1468.83 1136.5,1203.5C 757.5,1203.5 378.5,1203.5 -0.5,1203.5C -0.5,1070.17 -0.5,936.833 -0.5,803.5C 378.5,803.5 757.5,803.5 1136.5,803.5C 1136.5,535.5 1136.5,267.5 1136.5,-0.5 Z"/></g>
<g><path style="opacity:1" fill="#fefefe" d="M 1537.5,-0.5 C 1581.83,-0.5 1626.17,-0.5 1670.5,-0.5C 1670.33,165.834 1670.5,332.167 1671,498.5C 1894.5,332.511 2117.67,166.178 2340.5,-0.5C 2379.5,-0.5 2418.5,-0.5 2457.5,-0.5C 2195.68,195.137 1933.68,390.637 1671.5,586C 1670.51,612.759 1670.17,639.592 1670.5,666.5C 1713.83,666.667 1757.17,666.5 1800.5,666C 2089.04,447.95 2377.71,230.117 2666.5,12.5C 2666.5,94.5 2666.5,176.5 2666.5,258.5C 2484.83,393.833 2303.17,529.167 2121.5,664.5C 2120.71,664.783 2120.04,665.283 2119.5,666C 2301.83,666.5 2484.17,666.667 2666.5,666.5C 2666.5,712.167 2666.5,757.833 2666.5,803.5C 2290.17,803.5 1913.83,803.5 1537.5,803.5C 1537.5,535.5 1537.5,267.5 1537.5,-0.5 Z"/></g>
<g><path style="opacity:1" fill="#012169" d="M 1670.5,-0.5 C 1893.83,-0.5 2117.17,-0.5 2340.5,-0.5C 2117.67,166.178 1894.5,332.511 1671,498.5C 1670.5,332.167 1670.33,165.834 1670.5,-0.5 Z"/></g>
<g><path style="opacity:1" fill="#c8112e" d="M 2457.5,-0.5 C 2527.17,-0.5 2596.83,-0.5 2666.5,-0.5C 2666.5,3.83333 2666.5,8.16667 2666.5,12.5C 2377.71,230.117 2089.04,447.95 1800.5,666C 1757.17,666.5 1713.83,666.667 1670.5,666.5C 1670.17,639.592 1670.51,612.759 1671.5,586C 1933.68,390.637 2195.68,195.137 2457.5,-0.5 Z"/></g>
<g><path style="opacity:1" fill="#c8112e" d="M -0.5,-0.5 C -0.166667,-0.5 0.166667,-0.5 0.5,-0.5C 301.651,221.803 602.984,443.97 904.5,666C 821.5,666.667 738.5,666.667 655.5,666C 437.22,501.874 218.554,338.374 -0.5,175.5C -0.5,116.833 -0.5,58.1667 -0.5,-0.5 Z"/></g>
<g><path style="opacity:1" fill="#012169" d="M 2666.5,258.5 C 2666.5,394.167 2666.5,529.833 2666.5,665.5C 2484.67,665.833 2303,665.5 2121.5,664.5C 2303.17,529.167 2484.83,393.833 2666.5,258.5 Z"/></g>
<g><path style="opacity:1" fill="#012169" d="M -0.5,266.5 C 177.833,399.167 356.167,531.833 534.5,664.5C 356.334,665.5 178.001,665.833 -0.5,665.5C -0.5,532.5 -0.5,399.5 -0.5,266.5 Z"/></g>
<g><path style="opacity:1" fill="#8090b4" d="M 534.5,664.5 C 535.043,664.56 535.376,664.893 535.5,665.5C 356.835,666.5 178.168,666.833 -0.5,666.5C -0.5,666.167 -0.5,665.833 -0.5,665.5C 178.001,665.833 356.334,665.5 534.5,664.5 Z"/></g>
<g><path style="opacity:1" fill="#7f8fb3" d="M 2121.5,664.5 C 2303,665.5 2484.67,665.833 2666.5,665.5C 2666.5,665.833 2666.5,666.167 2666.5,666.5C 2484.17,666.667 2301.83,666.5 2119.5,666C 2120.04,665.283 2120.71,664.783 2121.5,664.5 Z"/></g>
<g><path style="opacity:1" fill="#fefefe" d="M -0.5,1203.5 C 378.5,1203.5 757.5,1203.5 1136.5,1203.5C 1136.5,1468.83 1136.5,1734.17 1136.5,1999.5C 1092.5,1999.5 1048.5,1999.5 1004.5,1999.5C 1004.83,1833.17 1004.5,1666.83 1003.5,1500.5C 1002.89,1500.62 1002.56,1500.96 1002.5,1501.5C 780.81,1667.53 559.143,1833.53 337.5,1999.5C 300.167,1999.5 262.833,1999.5 225.5,1999.5C 484.483,1804.7 743.65,1610.03 1003,1415.5C 1003.5,1387.84 1003.67,1360.17 1003.5,1332.5C 966.498,1332.33 929.498,1332.5 892.5,1333C 595.22,1555.46 297.553,1777.29 -0.5,1998.5C -0.5,1915.17 -0.5,1831.83 -0.5,1748.5C 185.315,1610.75 370.982,1472.75 556.5,1334.5C 557.289,1334.22 557.956,1333.72 558.5,1333C 372.167,1332.5 185.834,1332.33 -0.5,1332.5C -0.5,1289.5 -0.5,1246.5 -0.5,1203.5 Z"/></g>
<g><path style="opacity:1" fill="#fefefe" d="M 2666.5,1203.5 C 2666.5,1246.5 2666.5,1289.5 2666.5,1332.5C 2481.5,1332.17 2296.5,1332.5 2111.5,1333.5C 2111.62,1334.11 2111.96,1334.44 2112.5,1334.5C 2296.89,1471.55 2481.55,1608.22 2666.5,1744.5C 2666.5,1773.83 2666.5,1803.17 2666.5,1832.5C 2440.43,1665.76 2214.1,1499.42 1987.5,1333.5C 1911.33,1332.33 1835,1332.17 1758.5,1333C 1759.04,1333.72 1759.71,1334.22 1760.5,1334.5C 2062.38,1555.93 2364.05,1777.6 2665.5,1999.5C 2554.5,1999.5 2443.5,1999.5 2332.5,1999.5C 2112.81,1835.15 1892.81,1671.15 1672.5,1507.5C 1672.44,1506.96 1672.11,1506.62 1671.5,1506.5C 1670.5,1670.83 1670.17,1835.17 1670.5,1999.5C 1626.17,1999.5 1581.83,1999.5 1537.5,1999.5C 1537.5,1734.17 1537.5,1468.83 1537.5,1203.5C 1913.83,1203.5 2290.17,1203.5 2666.5,1203.5 Z"/></g>
<g><path style="opacity:1" fill="#8090b4" d="M -0.5,1333.5 C -0.5,1333.17 -0.5,1332.83 -0.5,1332.5C 185.834,1332.33 372.167,1332.5 558.5,1333C 557.956,1333.72 557.289,1334.22 556.5,1334.5C 371.001,1333.5 185.334,1333.17 -0.5,1333.5 Z"/></g>
<g><path style="opacity:1" fill="#e48897" d="M 1987.5,1333.5 C 1911.66,1333.17 1836,1333.5 1760.5,1334.5C 1759.71,1334.22 1759.04,1333.72 1758.5,1333C 1835,1332.17 1911.33,1332.33 1987.5,1333.5 Z"/></g>
<g><path style="opacity:1" fill="#8090b4" d="M 2666.5,1332.5 C 2666.5,1332.83 2666.5,1333.17 2666.5,1333.5C 2481.67,1333.17 2297,1333.5 2112.5,1334.5C 2111.96,1334.44 2111.62,1334.11 2111.5,1333.5C 2296.5,1332.5 2481.5,1332.17 2666.5,1332.5 Z"/></g>
<g><path style="opacity:1" fill="#012169" d="M -0.5,1333.5 C 185.334,1333.17 371.001,1333.5 556.5,1334.5C 370.982,1472.75 185.315,1610.75 -0.5,1748.5C -0.5,1610.17 -0.5,1471.83 -0.5,1333.5 Z"/></g>
<g><path style="opacity:1" fill="#c8112e" d="M 225.5,1999.5 C 150.167,1999.5 74.8333,1999.5 -0.5,1999.5C -0.5,1999.17 -0.5,1998.83 -0.5,1998.5C 297.553,1777.29 595.22,1555.46 892.5,1333C 929.498,1332.5 966.498,1332.33 1003.5,1332.5C 1003.67,1360.17 1003.5,1387.84 1003,1415.5C 743.65,1610.03 484.483,1804.7 225.5,1999.5 Z"/></g>
<g><path style="opacity:1" fill="#c8112e" d="M 1760.5,1334.5 C 1836,1333.5 1911.66,1333.17 1987.5,1333.5C 2214.1,1499.42 2440.43,1665.76 2666.5,1832.5C 2666.5,1888.17 2666.5,1943.83 2666.5,1999.5C 2666.17,1999.5 2665.83,1999.5 2665.5,1999.5C 2364.05,1777.6 2062.38,1555.93 1760.5,1334.5 Z"/></g>
<g><path style="opacity:1" fill="#012169" d="M 2112.5,1334.5 C 2297,1333.5 2481.67,1333.17 2666.5,1333.5C 2666.5,1470.5 2666.5,1607.5 2666.5,1744.5C 2481.55,1608.22 2296.89,1471.55 2112.5,1334.5 Z"/></g>
<g><path style="opacity:1" fill="#bfc7d9" d="M 1002.5,1501.5 C 1002.56,1500.96 1002.89,1500.62 1003.5,1500.5C 1004.5,1666.83 1004.83,1833.17 1004.5,1999.5C 1004.17,1999.5 1003.83,1999.5 1003.5,1999.5C 1003.83,1833.33 1003.5,1667.33 1002.5,1501.5 Z"/></g>
<g><path style="opacity:1" fill="#012169" d="M 1002.5,1501.5 C 1003.5,1667.33 1003.83,1833.33 1003.5,1999.5C 781.5,1999.5 559.5,1999.5 337.5,1999.5C 559.143,1833.53 780.81,1667.53 1002.5,1501.5 Z"/></g>
<g><path style="opacity:1" fill="#40588e" d="M 1672.5,1507.5 C 1671.5,1671.33 1671.17,1835.33 1671.5,1999.5C 1671.17,1999.5 1670.83,1999.5 1670.5,1999.5C 1670.17,1835.17 1670.5,1670.83 1671.5,1506.5C 1672.11,1506.62 1672.44,1506.96 1672.5,1507.5 Z"/></g>
<g><path style="opacity:1" fill="#012169" d="M 1672.5,1507.5 C 1892.81,1671.15 2112.81,1835.15 2332.5,1999.5C 2112.17,1999.5 1891.83,1999.5 1671.5,1999.5C 1671.17,1835.33 1671.5,1671.33 1672.5,1507.5 Z"/></g>
</svg>
